%TF.GenerationSoftware,KiCad,Pcbnew,(6.0.9)*%
%TF.CreationDate,2023-01-13T00:05:01-05:00*%
%TF.ProjectId,esp32-wrover,65737033-322d-4777-926f-7665722e6b69,rev?*%
%TF.SameCoordinates,Original*%
%TF.FileFunction,Copper,L1,Top*%
%TF.FilePolarity,Positive*%
%FSLAX46Y46*%
G04 Gerber Fmt 4.6, Leading zero omitted, Abs format (unit mm)*
G04 Created by KiCad (PCBNEW (6.0.9)) date 2023-01-13 00:05:01*
%MOMM*%
%LPD*%
G01*
G04 APERTURE LIST*
%TA.AperFunction,SMDPad,CuDef*%
%ADD10R,1.500000X0.900000*%
%TD*%
%TA.AperFunction,SMDPad,CuDef*%
%ADD11R,0.900000X0.900000*%
%TD*%
G04 APERTURE END LIST*
D10*
%TO.P,U1,1,GND*%
%TO.N,Net-(U1-Pad1)*%
X140250000Y-88545000D03*
%TO.P,U1,2,3V3*%
%TO.N,unconnected-(U1-Pad2)*%
X140250000Y-89815000D03*
%TO.P,U1,3,EN/CHIP_PU*%
%TO.N,unconnected-(U1-Pad3)*%
X140250000Y-91085000D03*
%TO.P,U1,4,SENSOR_VP/GPIO36/ADC1_CH0*%
%TO.N,unconnected-(U1-Pad4)*%
X140250000Y-92355000D03*
%TO.P,U1,5,SENSOR_VN/GPIO39/ADC1_CH3*%
%TO.N,unconnected-(U1-Pad5)*%
X140250000Y-93625000D03*
%TO.P,U1,6,GPIO34/ADC1_CH6*%
%TO.N,unconnected-(U1-Pad6)*%
X140250000Y-94895000D03*
%TO.P,U1,7,GPIO35/ADC1_CH7*%
%TO.N,unconnected-(U1-Pad7)*%
X140250000Y-96165000D03*
%TO.P,U1,8,32K_XP/GPIO32/ADC1_CH4*%
%TO.N,unconnected-(U1-Pad8)*%
X140250000Y-97435000D03*
%TO.P,U1,9,32K_XN/GPIO33/ADC1_CH5*%
%TO.N,unconnected-(U1-Pad9)*%
X140250000Y-98705000D03*
%TO.P,U1,10,DAC_1/ADC2_CH8/GPIO25*%
%TO.N,unconnected-(U1-Pad10)*%
X140250000Y-99975000D03*
%TO.P,U1,11,DAC_2/ADC2_CH9/GPIO26*%
%TO.N,unconnected-(U1-Pad11)*%
X140250000Y-101245000D03*
%TO.P,U1,12,ADC2_CH7/GPIO27*%
%TO.N,unconnected-(U1-Pad12)*%
X140250000Y-102515000D03*
%TO.P,U1,13,MTMS/GPIO14/ADC2_CH6*%
%TO.N,unconnected-(U1-Pad13)*%
X140250000Y-103785000D03*
%TO.P,U1,14,MTDI/GPIO12/ADC2_CH5*%
%TO.N,unconnected-(U1-Pad14)*%
X140250000Y-105055000D03*
%TO.P,U1,15,GND*%
%TO.N,Net-(U1-Pad1)*%
X140250000Y-106325000D03*
%TO.P,U1,16,MTCK/GPIO13/ADC2_CH4*%
%TO.N,unconnected-(U1-Pad16)*%
X140250000Y-107595000D03*
%TO.P,U1,17,NC*%
%TO.N,unconnected-(U1-Pad17)*%
X140250000Y-108865000D03*
%TO.P,U1,18,NC*%
%TO.N,unconnected-(U1-Pad18)*%
X140250000Y-110135000D03*
%TO.P,U1,19,NC*%
%TO.N,unconnected-(U1-Pad19)*%
X140250000Y-111405000D03*
%TO.P,U1,20,NC*%
%TO.N,unconnected-(U1-Pad20)*%
X157750000Y-111405000D03*
%TO.P,U1,21,NC*%
%TO.N,unconnected-(U1-Pad21)*%
X157750000Y-110135000D03*
%TO.P,U1,22,NC*%
%TO.N,unconnected-(U1-Pad22)*%
X157750000Y-108865000D03*
%TO.P,U1,23,MTDO/GPIO15/ADC2_CH3*%
%TO.N,unconnected-(U1-Pad23)*%
X157750000Y-107595000D03*
%TO.P,U1,24,ADC2_CH2/GPIO2*%
%TO.N,unconnected-(U1-Pad24)*%
X157750000Y-106325000D03*
%TO.P,U1,25,GPIO0/BOOT/ADC2_CH1*%
%TO.N,unconnected-(U1-Pad25)*%
X157750000Y-105055000D03*
%TO.P,U1,26,ADC2_CH0/GPIO4*%
%TO.N,unconnected-(U1-Pad26)*%
X157750000Y-103785000D03*
%TO.P,U1,27,NC*%
%TO.N,unconnected-(U1-Pad27)*%
X157750000Y-102515000D03*
%TO.P,U1,28,NC*%
%TO.N,unconnected-(U1-Pad28)*%
X157750000Y-101245000D03*
%TO.P,U1,29,GPIO5*%
%TO.N,unconnected-(U1-Pad29)*%
X157750000Y-99975000D03*
%TO.P,U1,30,GPIO18*%
%TO.N,unconnected-(U1-Pad30)*%
X157750000Y-98705000D03*
%TO.P,U1,31,GPIO19*%
%TO.N,unconnected-(U1-Pad31)*%
X157750000Y-97435000D03*
%TO.P,U1,32,NC*%
%TO.N,unconnected-(U1-Pad32)*%
X157750000Y-96165000D03*
%TO.P,U1,33,GPIO21*%
%TO.N,unconnected-(U1-Pad33)*%
X157750000Y-94895000D03*
%TO.P,U1,34,U0RXD/GPIO3*%
%TO.N,unconnected-(U1-Pad34)*%
X157750000Y-93625000D03*
%TO.P,U1,35,U0TXD/GPIO1*%
%TO.N,unconnected-(U1-Pad35)*%
X157750000Y-92355000D03*
%TO.P,U1,36,GPIO22*%
%TO.N,unconnected-(U1-Pad36)*%
X157750000Y-91085000D03*
%TO.P,U1,37,GPIO23*%
%TO.N,unconnected-(U1-Pad37)*%
X157750000Y-89815000D03*
%TO.P,U1,38,GND*%
%TO.N,Net-(U1-Pad1)*%
X157750000Y-88545000D03*
D11*
%TO.P,U1,39,GND_THERMAL*%
%TO.N,unconnected-(U1-Pad39)*%
X146100000Y-96340000D03*
X147500000Y-94940000D03*
X148900000Y-94940000D03*
X147500000Y-96340000D03*
X146095000Y-94940000D03*
X146100000Y-97740000D03*
X148900000Y-96340000D03*
X147500000Y-97740000D03*
X148900000Y-97740000D03*
%TD*%
M02*
