%TF.GenerationSoftware,KiCad,Pcbnew,(6.0.9)*%
%TF.CreationDate,2023-01-13T00:08:20-05:00*%
%TF.ProjectId,esp32-s3-2,65737033-322d-4733-932d-322e6b696361,rev?*%
%TF.SameCoordinates,Original*%
%TF.FileFunction,Copper,L1,Top*%
%TF.FilePolarity,Positive*%
%FSLAX46Y46*%
G04 Gerber Fmt 4.6, Leading zero omitted, Abs format (unit mm)*
G04 Created by KiCad (PCBNEW (6.0.9)) date 2023-01-13 00:08:20*
%MOMM*%
%LPD*%
G01*
G04 APERTURE LIST*
%TA.AperFunction,SMDPad,CuDef*%
%ADD10R,1.500000X0.900000*%
%TD*%
%TA.AperFunction,SMDPad,CuDef*%
%ADD11R,0.900000X1.500000*%
%TD*%
%TA.AperFunction,SMDPad,CuDef*%
%ADD12R,1.000000X1.000000*%
%TD*%
G04 APERTURE END LIST*
D10*
%TO.P,U1,1,GND*%
%TO.N,Net-(U1-Pad1)*%
X140850000Y-93740000D03*
%TO.P,U1,2,3V3*%
%TO.N,unconnected-(U1-Pad2)*%
X140850000Y-95010000D03*
%TO.P,U1,3,EN*%
%TO.N,unconnected-(U1-Pad3)*%
X140850000Y-96280000D03*
%TO.P,U1,4,GPIO4/TOUCH4/ADC1_CH3*%
%TO.N,unconnected-(U1-Pad4)*%
X140850000Y-97550000D03*
%TO.P,U1,5,GPIO5/TOUCH5/ADC1_CH4*%
%TO.N,unconnected-(U1-Pad5)*%
X140850000Y-98820000D03*
%TO.P,U1,6,GPIO6/TOUCH6/ADC1_CH5*%
%TO.N,unconnected-(U1-Pad6)*%
X140850000Y-100090000D03*
%TO.P,U1,7,GPIO7/TOUCH7/ADC1_CH6*%
%TO.N,unconnected-(U1-Pad7)*%
X140850000Y-101360000D03*
%TO.P,U1,8,GPIO15/U0RTS/ADC2_CH4/XTAL_32K_P*%
%TO.N,unconnected-(U1-Pad8)*%
X140850000Y-102630000D03*
%TO.P,U1,9,GPIO16/U0CTS/ADC2_CH5/XTAL_32K_NH5*%
%TO.N,unconnected-(U1-Pad9)*%
X140850000Y-103900000D03*
%TO.P,U1,10,GPIO17/U1TXD/ADC2_CH6*%
%TO.N,unconnected-(U1-Pad10)*%
X140850000Y-105170000D03*
%TO.P,U1,11,GPIO18/U1RXD/ADC2_CH7/CLK_OUT3*%
%TO.N,unconnected-(U1-Pad11)*%
X140850000Y-106440000D03*
%TO.P,U1,12,GPIO8/TOUCH8/ADC1_CH7/SUBSPICS1*%
%TO.N,unconnected-(U1-Pad12)*%
X140850000Y-107710000D03*
%TO.P,U1,13,GPIO19/U1RTS/ADC2_CH8/CLK_OUT2/USB_D-*%
%TO.N,unconnected-(U1-Pad13)*%
X140850000Y-108980000D03*
%TO.P,U1,14,GPIO20/U1CTS/ADC2_CH9/CLK_OUT1/USB_D+*%
%TO.N,unconnected-(U1-Pad14)*%
X140850000Y-110250000D03*
D11*
%TO.P,U1,15,GPIO3/TOUCH3/ADC1_CH2*%
%TO.N,unconnected-(U1-Pad15)*%
X142615000Y-111500000D03*
%TO.P,U1,16,GPIO46*%
%TO.N,unconnected-(U1-Pad16)*%
X143885000Y-111500000D03*
%TO.P,U1,17,GPIO9/TOUCH9/ADC1_CH8/FSPIHD/SUBSPIHD*%
%TO.N,unconnected-(U1-Pad17)*%
X145155000Y-111500000D03*
%TO.P,U1,18,GPIO10/TOUCH10/ADC1_CH9/FSPICS0/FSPIIO4/SUBSPICS0*%
%TO.N,unconnected-(U1-Pad18)*%
X146425000Y-111500000D03*
%TO.P,U1,19,GPIO11/TOUCH11/ADC2_CH0/FSPID/FSPIIO5/SUBSPID*%
%TO.N,unconnected-(U1-Pad19)*%
X147695000Y-111500000D03*
%TO.P,U1,20,GPIO12/TOUCH12/ADC2_CH1/FSPICLK/FSPIIO6/SUBSPICLK*%
%TO.N,unconnected-(U1-Pad20)*%
X148965000Y-111500000D03*
%TO.P,U1,21,GPIO13/TOUCH13/ADC2_CH2/FSPIQ/FSPIIO7/SUBSPIQ*%
%TO.N,unconnected-(U1-Pad21)*%
X150235000Y-111500000D03*
%TO.P,U1,22,GPIO14/TOUCH14/ADC2_CH3/FSPIWP/FSPIDQS/SUBSPIWP*%
%TO.N,unconnected-(U1-Pad22)*%
X151505000Y-111500000D03*
%TO.P,U1,23,GPIO21*%
%TO.N,unconnected-(U1-Pad23)*%
X152775000Y-111500000D03*
%TO.P,U1,24,GPIO47/SPICLK_P/SUBSPICLK_P_DIFF*%
%TO.N,unconnected-(U1-Pad24)*%
X154045000Y-111500000D03*
%TO.P,U1,25,GPIO48/SPICLK_N/SUBSPICLK_N_DIFF*%
%TO.N,unconnected-(U1-Pad25)*%
X155315000Y-111500000D03*
%TO.P,U1,26,GPIO45*%
%TO.N,unconnected-(U1-Pad26)*%
X156585000Y-111500000D03*
D10*
%TO.P,U1,27,GPIO0/BOOT*%
%TO.N,unconnected-(U1-Pad27)*%
X158350000Y-110250000D03*
%TO.P,U1,28,NC*%
%TO.N,unconnected-(U1-Pad28)*%
X158350000Y-108980000D03*
%TO.P,U1,29,NC*%
%TO.N,unconnected-(U1-Pad29)*%
X158350000Y-107710000D03*
%TO.P,U1,30,NC*%
%TO.N,unconnected-(U1-Pad30)*%
X158350000Y-106440000D03*
%TO.P,U1,31,GPIO38/FSPIWP/SUBSPIWP*%
%TO.N,unconnected-(U1-Pad31)*%
X158350000Y-105170000D03*
%TO.P,U1,32,MTCK/GPIO39/CLK_OUT3/SUBSPICS1*%
%TO.N,unconnected-(U1-Pad32)*%
X158350000Y-103900000D03*
%TO.P,U1,33,MTDO/GPIO40/CLK_OUT2*%
%TO.N,unconnected-(U1-Pad33)*%
X158350000Y-102630000D03*
%TO.P,U1,34,MTDI/GPIO41/CLK_OUT1*%
%TO.N,unconnected-(U1-Pad34)*%
X158350000Y-101360000D03*
%TO.P,U1,35,MTMS/GPIO42*%
%TO.N,unconnected-(U1-Pad35)*%
X158350000Y-100090000D03*
%TO.P,U1,36,U0RXD/GPIO44/CLK_OUT2*%
%TO.N,unconnected-(U1-Pad36)*%
X158350000Y-98820000D03*
%TO.P,U1,37,U0TXD/GPIO43/CLK_OUT1*%
%TO.N,unconnected-(U1-Pad37)*%
X158350000Y-97550000D03*
%TO.P,U1,38,GPIO2/TOUCH2/ADC1_CH1*%
%TO.N,unconnected-(U1-Pad38)*%
X158350000Y-96280000D03*
%TO.P,U1,39,GPIO1/TOUCH1/ADC1_CH0*%
%TO.N,unconnected-(U1-Pad39)*%
X158350000Y-95010000D03*
%TO.P,U1,40,GND*%
%TO.N,Net-(U1-Pad1)*%
X158350000Y-93740000D03*
D12*
%TO.P,U1,41,GND*%
X148240000Y-99090000D03*
X146740000Y-100590000D03*
X146740000Y-97590000D03*
X149740000Y-97590000D03*
X148240000Y-100590000D03*
X149740000Y-99090000D03*
X149740000Y-100590000D03*
X148240000Y-97590000D03*
X146740000Y-99090000D03*
%TD*%
M02*
