%TF.GenerationSoftware,KiCad,Pcbnew,9.0.7*%
%TF.CreationDate,2026-02-08T20:51:08-05:00*%
%TF.ProjectId,esp32-c3-mini,65737033-322d-4633-932d-6d696e692e6b,rev?*%
%TF.SameCoordinates,Original*%
%TF.FileFunction,Copper,L1,Top*%
%TF.FilePolarity,Positive*%
%FSLAX46Y46*%
G04 Gerber Fmt 4.6, Leading zero omitted, Abs format (unit mm)*
G04 Created by KiCad (PCBNEW 9.0.7) date 2026-02-08 20:51:08*
%MOMM*%
%LPD*%
G01*
G04 APERTURE LIST*
G04 Aperture macros list*
%AMFreePoly0*
4,1,6,0.725000,-0.725000,-0.725000,-0.725000,-0.725000,0.125000,-0.125000,0.725000,0.725000,0.725000,0.725000,-0.725000,0.725000,-0.725000,$1*%
G04 Aperture macros list end*
%TA.AperFunction,SMDPad,CuDef*%
%ADD10R,0.800000X0.400000*%
%TD*%
%TA.AperFunction,SMDPad,CuDef*%
%ADD11R,0.400000X0.800000*%
%TD*%
%TA.AperFunction,SMDPad,CuDef*%
%ADD12FreePoly0,0.000000*%
%TD*%
%TA.AperFunction,SMDPad,CuDef*%
%ADD13R,1.450000X1.450000*%
%TD*%
%TA.AperFunction,SMDPad,CuDef*%
%ADD14R,0.700000X0.700000*%
%TD*%
G04 APERTURE END LIST*
D10*
%TO.P,U1,1,GND*%
%TO.N,Net-(U1-GND-Pad1)*%
X144650000Y-97550000D03*
%TO.P,U1,2,GND*%
X144650000Y-98350000D03*
%TO.P,U1,3,3V3*%
%TO.N,unconnected-(U1-3V3-Pad3)*%
X144650000Y-99150000D03*
%TO.P,U1,4,NC*%
%TO.N,unconnected-(U1-NC-Pad4)*%
X144650000Y-99950000D03*
%TO.P,U1,5,GPIO2/ADC1_CH2*%
%TO.N,unconnected-(U1-GPIO2{slash}ADC1_CH2-Pad5)*%
X144650000Y-100750000D03*
%TO.P,U1,6,GPIO3/ADC1_CH3*%
%TO.N,unconnected-(U1-GPIO3{slash}ADC1_CH3-Pad6)*%
X144650000Y-101550000D03*
%TO.P,U1,7,NC*%
%TO.N,unconnected-(U1-NC-Pad7)*%
X144650000Y-102350000D03*
%TO.P,U1,8,EN/CHIP_PU*%
%TO.N,unconnected-(U1-EN{slash}CHIP_PU-Pad8)*%
X144650000Y-103150000D03*
%TO.P,U1,9,NC*%
%TO.N,unconnected-(U1-NC-Pad9)*%
X144650000Y-103950000D03*
%TO.P,U1,10,NC*%
%TO.N,unconnected-(U1-NC-Pad10)*%
X144650000Y-104750000D03*
%TO.P,U1,11,GND*%
%TO.N,Net-(U1-GND-Pad1)*%
X144650000Y-105550000D03*
D11*
%TO.P,U1,12,GPIO0/ADC1_CH0/XTAL_32K_P*%
%TO.N,unconnected-(U1-GPIO0{slash}ADC1_CH0{slash}XTAL_32K_P-Pad12)*%
X145750000Y-106450000D03*
%TO.P,U1,13,GPIO1/ADC1_CH1/XTAL_32K_N*%
%TO.N,unconnected-(U1-GPIO1{slash}ADC1_CH1{slash}XTAL_32K_N-Pad13)*%
X146550000Y-106450000D03*
%TO.P,U1,14,GND*%
%TO.N,Net-(U1-GND-Pad1)*%
X147350000Y-106450000D03*
%TO.P,U1,15,NC*%
%TO.N,unconnected-(U1-NC-Pad15)*%
X148150000Y-106450000D03*
%TO.P,U1,16,GPIO10*%
%TO.N,unconnected-(U1-GPIO10-Pad16)*%
X148950000Y-106450000D03*
%TO.P,U1,17,NC*%
%TO.N,unconnected-(U1-NC-Pad17)*%
X149750000Y-106450000D03*
%TO.P,U1,18,GPIO4/ADC1_CH4*%
%TO.N,unconnected-(U1-GPIO4{slash}ADC1_CH4-Pad18)*%
X150550000Y-106450000D03*
%TO.P,U1,19,GPIO5/ADC2_CH0*%
%TO.N,unconnected-(U1-GPIO5{slash}ADC2_CH0-Pad19)*%
X151350000Y-106450000D03*
%TO.P,U1,20,GPIO6*%
%TO.N,unconnected-(U1-GPIO6-Pad20)*%
X152150000Y-106450000D03*
%TO.P,U1,21,GPIO7*%
%TO.N,unconnected-(U1-GPIO7-Pad21)*%
X152950000Y-106450000D03*
%TO.P,U1,22,GPIO8*%
%TO.N,unconnected-(U1-GPIO8-Pad22)*%
X153750000Y-106450000D03*
%TO.P,U1,23,GPIO9*%
%TO.N,unconnected-(U1-GPIO9-Pad23)*%
X154550000Y-106450000D03*
%TO.P,U1,24,NC*%
%TO.N,unconnected-(U1-NC-Pad24)*%
X155350000Y-106450000D03*
D10*
%TO.P,U1,25,NC*%
%TO.N,unconnected-(U1-NC-Pad25)*%
X156450000Y-105550000D03*
%TO.P,U1,26,GPIO18/USB_D-*%
%TO.N,unconnected-(U1-GPIO18{slash}USB_D--Pad26)*%
X156450000Y-104750000D03*
%TO.P,U1,27,GPIO19/USB_D+*%
%TO.N,unconnected-(U1-GPIO19{slash}USB_D+-Pad27)*%
X156450000Y-103950000D03*
%TO.P,U1,28,NC*%
%TO.N,unconnected-(U1-NC-Pad28)*%
X156450000Y-103150000D03*
%TO.P,U1,29,NC*%
%TO.N,unconnected-(U1-NC-Pad29)*%
X156450000Y-102350000D03*
%TO.P,U1,30,GPIO20/U0RXD*%
%TO.N,unconnected-(U1-GPIO20{slash}U0RXD-Pad30)*%
X156450000Y-101550000D03*
%TO.P,U1,31,GPIO21/U0TXD*%
%TO.N,unconnected-(U1-GPIO21{slash}U0TXD-Pad31)*%
X156450000Y-100750000D03*
%TO.P,U1,32,NC*%
%TO.N,unconnected-(U1-NC-Pad32)*%
X156450000Y-99950000D03*
%TO.P,U1,33,NC*%
%TO.N,unconnected-(U1-NC-Pad33)*%
X156450000Y-99150000D03*
%TO.P,U1,34,NC*%
%TO.N,unconnected-(U1-NC-Pad34)*%
X156450000Y-98350000D03*
%TO.P,U1,35,NC*%
%TO.N,unconnected-(U1-NC-Pad35)*%
X156450000Y-97550000D03*
D11*
%TO.P,U1,36,GND*%
%TO.N,Net-(U1-GND-Pad1)*%
X155350000Y-96650000D03*
%TO.P,U1,37,GND*%
X154550000Y-96650000D03*
%TO.P,U1,38,GND*%
X153750000Y-96650000D03*
%TO.P,U1,39,GND*%
X152950000Y-96650000D03*
%TO.P,U1,40,GND*%
X152150000Y-96650000D03*
%TO.P,U1,41,GND*%
X151350000Y-96650000D03*
%TO.P,U1,42,GND*%
X150550000Y-96650000D03*
%TO.P,U1,43,GND*%
X149750000Y-96650000D03*
%TO.P,U1,44,GND*%
X148950000Y-96650000D03*
%TO.P,U1,45,GND*%
X148150000Y-96650000D03*
%TO.P,U1,46,GND*%
X147350000Y-96650000D03*
%TO.P,U1,47,GND*%
X146550000Y-96650000D03*
%TO.P,U1,48,GND*%
X145750000Y-96650000D03*
D12*
%TO.P,U1,49,GND*%
X148575000Y-99575000D03*
D13*
X148575000Y-101550000D03*
X148575000Y-103525000D03*
X150550000Y-99575000D03*
X150550000Y-101550000D03*
X150550000Y-103525000D03*
X152525000Y-99575000D03*
X152525000Y-101550000D03*
X152525000Y-103525000D03*
D14*
%TO.P,U1,50,GND*%
X156500000Y-96600000D03*
%TO.P,U1,51,GND*%
X156500000Y-106500000D03*
%TO.P,U1,52,GND*%
X144600000Y-106500000D03*
%TO.P,U1,53,GND*%
X144600000Y-96600000D03*
%TD*%
M02*
