%TF.GenerationSoftware,KiCad,Pcbnew,9.0.7*%
%TF.CreationDate,2026-02-08T13:18:31-05:00*%
%TF.ProjectId,esp32-pico-zero,65737033-322d-4706-9963-6f2d7a65726f,rev?*%
%TF.SameCoordinates,Original*%
%TF.FileFunction,Copper,L1,Top*%
%TF.FilePolarity,Positive*%
%FSLAX46Y46*%
G04 Gerber Fmt 4.6, Leading zero omitted, Abs format (unit mm)*
G04 Created by KiCad (PCBNEW 9.0.7) date 2026-02-08 13:18:31*
%MOMM*%
%LPD*%
G01*
G04 APERTURE LIST*
%TA.AperFunction,EtchedComponent*%
%ADD10C,0.000000*%
%TD*%
%TA.AperFunction,SMDPad,CuDef*%
%ADD11R,0.800000X0.400000*%
%TD*%
%TA.AperFunction,SMDPad,CuDef*%
%ADD12R,0.800000X0.800000*%
%TD*%
%TA.AperFunction,SMDPad,CuDef*%
%ADD13R,0.400000X0.800000*%
%TD*%
%TA.AperFunction,SMDPad,CuDef*%
%ADD14R,1.200000X1.200000*%
%TD*%
%TA.AperFunction,SMDPad,CuDef*%
%ADD15R,0.127000X0.127000*%
%TD*%
G04 APERTURE END LIST*
D10*
%TA.AperFunction,EtchedComponent*%
%TO.C,U1*%
G36*
X150400001Y-104899999D02*
G01*
X149200001Y-104899999D01*
X149200001Y-104299999D01*
X149800001Y-103699999D01*
X150400001Y-103699999D01*
X150400001Y-104899999D01*
G37*
%TD.AperFunction*%
%TD*%
D11*
%TO.P,U1,1,NC*%
%TO.N,unconnected-(U1-NC-Pad1)*%
X144400000Y-100200001D03*
%TO.P,U1,2,NC*%
%TO.N,unconnected-(U1-NC-Pad2)*%
X144400000Y-100999999D03*
%TO.P,U1,3,DBG_RXD/IO3*%
%TO.N,unconnected-(U1-DBG_RXD{slash}IO3-Pad3)*%
X144400000Y-101800000D03*
%TO.P,U1,4,DBG_TXD/IO1*%
%TO.N,unconnected-(U1-DBG_TXD{slash}IO1-Pad4)*%
X144400000Y-102599999D03*
%TO.P,U1,5,NC*%
%TO.N,unconnected-(U1-NC-Pad5)*%
X144400000Y-103400000D03*
%TO.P,U1,6,NC*%
%TO.N,unconnected-(U1-NC-Pad6)*%
X144400000Y-104199998D03*
%TO.P,U1,7,NC*%
%TO.N,unconnected-(U1-NC-Pad7)*%
X144400000Y-104999999D03*
%TO.P,U1,8,NC*%
%TO.N,unconnected-(U1-NC-Pad8)*%
X144400000Y-105800000D03*
%TO.P,U1,9,NC*%
%TO.N,unconnected-(U1-NC-Pad9)*%
X144400000Y-106599998D03*
%TO.P,U1,10,NC*%
%TO.N,unconnected-(U1-NC-Pad10)*%
X144400000Y-107399999D03*
%TO.P,U1,11,NC*%
%TO.N,unconnected-(U1-NC-Pad11)*%
X144400000Y-108199998D03*
%TO.P,U1,12,GND*%
%TO.N,unconnected-(U1-GND-Pad12)*%
X144400000Y-108999999D03*
%TO.P,U1,13,NC*%
%TO.N,unconnected-(U1-NC-Pad13)*%
X144400000Y-109799999D03*
%TO.P,U1,14,NC*%
%TO.N,unconnected-(U1-NC-Pad14)*%
X144400000Y-110599998D03*
%TO.P,U1,15,NC*%
%TO.N,unconnected-(U1-NC-Pad15)*%
X144400000Y-111399999D03*
%TO.P,U1,16,NC*%
%TO.N,unconnected-(U1-NC-Pad16)*%
X144400000Y-112199997D03*
D12*
%TO.P,U1,66,GND*%
%TO.N,unconnected-(U1-GND-Pad66)*%
X144400002Y-113500000D03*
D13*
%TO.P,U1,17,NC*%
%TO.N,unconnected-(U1-NC-Pad17)*%
X145700000Y-113500000D03*
%TO.P,U1,18,NC*%
%TO.N,unconnected-(U1-NC-Pad18)*%
X146500001Y-113500000D03*
%TO.P,U1,19,EN*%
%TO.N,unconnected-(U1-EN-Pad19)*%
X147300002Y-113500000D03*
%TO.P,U1,20,GND*%
%TO.N,unconnected-(U1-GND-Pad20)*%
X148100001Y-113500000D03*
%TO.P,U1,21,GND*%
%TO.N,unconnected-(U1-GND-Pad21)*%
X148900002Y-113500000D03*
%TO.P,U1,22,VDD33*%
%TO.N,unconnected-(U1-VDD33-Pad22)*%
X149700000Y-113500000D03*
%TO.P,U1,23,GND*%
%TO.N,unconnected-(U1-GND-Pad23)*%
X150500001Y-113500000D03*
%TO.P,U1,24,GND*%
%TO.N,unconnected-(U1-GND-Pad24)*%
X151300002Y-113500000D03*
%TO.P,U1,25,GND*%
%TO.N,unconnected-(U1-GND-Pad25)*%
X152100000Y-113500000D03*
%TO.P,U1,26,GND*%
%TO.N,unconnected-(U1-GND-Pad26)*%
X152900001Y-113500000D03*
%TO.P,U1,27,GND*%
%TO.N,unconnected-(U1-GND-Pad27)*%
X153700000Y-113500000D03*
%TO.P,U1,28,GND*%
%TO.N,unconnected-(U1-GND-Pad28)*%
X154500000Y-113500000D03*
%TO.P,U1,29,GND*%
%TO.N,unconnected-(U1-GND-Pad29)*%
X155300001Y-113500000D03*
%TO.P,U1,30,GND*%
%TO.N,unconnected-(U1-GND-Pad30)*%
X156100000Y-113500000D03*
%TO.P,U1,31,GND*%
%TO.N,unconnected-(U1-GND-Pad31)*%
X156900001Y-113500000D03*
%TO.P,U1,32,GND*%
%TO.N,unconnected-(U1-GND-Pad32)*%
X157699999Y-113500000D03*
D12*
%TO.P,U1,67,GND*%
%TO.N,unconnected-(U1-GND-Pad67)*%
X159000000Y-113500000D03*
D11*
%TO.P,U1,33,NC*%
%TO.N,unconnected-(U1-NC-Pad33)*%
X159000002Y-112199997D03*
%TO.P,U1,34,NC*%
%TO.N,unconnected-(U1-NC-Pad34)*%
X159000002Y-111399999D03*
%TO.P,U1,35,NC*%
%TO.N,unconnected-(U1-NC-Pad35)*%
X159000002Y-110599998D03*
%TO.P,U1,36,NC*%
%TO.N,unconnected-(U1-NC-Pad36)*%
X159000002Y-109799999D03*
%TO.P,U1,37,GND*%
%TO.N,unconnected-(U1-GND-Pad37)*%
X159000002Y-108999999D03*
%TO.P,U1,38,NC*%
%TO.N,unconnected-(U1-NC-Pad38)*%
X159000002Y-108199998D03*
%TO.P,U1,39,NC*%
%TO.N,unconnected-(U1-NC-Pad39)*%
X159000002Y-107399999D03*
%TO.P,U1,40,NC*%
%TO.N,unconnected-(U1-NC-Pad40)*%
X159000002Y-106599998D03*
%TO.P,U1,41,U1TXD/IO19*%
%TO.N,unconnected-(U1-U1TXD{slash}IO19-Pad41)*%
X159000002Y-105800000D03*
%TO.P,U1,42,GND*%
%TO.N,unconnected-(U1-GND-Pad42)*%
X159000002Y-104999999D03*
%TO.P,U1,43,VDD33*%
%TO.N,unconnected-(U1-VDD33-Pad43)*%
X159000002Y-104199998D03*
%TO.P,U1,44,GND*%
%TO.N,unconnected-(U1-GND-Pad44)*%
X159000002Y-103400000D03*
%TO.P,U1,45,U1RXD/IO22*%
%TO.N,unconnected-(U1-U1RXD{slash}IO22-Pad45)*%
X159000002Y-102599999D03*
%TO.P,U1,46,NC*%
%TO.N,unconnected-(U1-NC-Pad46)*%
X159000002Y-101800000D03*
%TO.P,U1,47,INT_B/IO27*%
%TO.N,unconnected-(U1-INT_B{slash}IO27-Pad47)*%
X159000002Y-100999999D03*
%TO.P,U1,48,NC*%
%TO.N,unconnected-(U1-NC-Pad48)*%
X159000002Y-100200001D03*
D12*
%TO.P,U1,68,GND*%
%TO.N,unconnected-(U1-GND-Pad68)*%
X159000000Y-98899998D03*
D13*
%TO.P,U1,49,GND*%
%TO.N,unconnected-(U1-GND-Pad49)*%
X157700002Y-98899998D03*
%TO.P,U1,50,GND*%
%TO.N,unconnected-(U1-GND-Pad50)*%
X156900001Y-98899998D03*
%TO.P,U1,51,GND*%
%TO.N,unconnected-(U1-GND-Pad51)*%
X156100000Y-98899998D03*
%TO.P,U1,52,GND*%
%TO.N,unconnected-(U1-GND-Pad52)*%
X155300001Y-98899998D03*
%TO.P,U1,53,GND*%
%TO.N,unconnected-(U1-GND-Pad53)*%
X154500000Y-98899998D03*
%TO.P,U1,54,GND*%
%TO.N,unconnected-(U1-GND-Pad54)*%
X153700002Y-98899998D03*
%TO.P,U1,55,GND*%
%TO.N,unconnected-(U1-GND-Pad55)*%
X152900001Y-98899998D03*
%TO.P,U1,56,GND*%
%TO.N,unconnected-(U1-GND-Pad56)*%
X152100000Y-98899998D03*
%TO.P,U1,57,GND*%
%TO.N,unconnected-(U1-GND-Pad57)*%
X151300002Y-98899998D03*
%TO.P,U1,58,GND*%
%TO.N,unconnected-(U1-GND-Pad58)*%
X150500001Y-98899998D03*
%TO.P,U1,59,GND*%
%TO.N,unconnected-(U1-GND-Pad59)*%
X149700002Y-98899998D03*
%TO.P,U1,60,GND*%
%TO.N,unconnected-(U1-GND-Pad60)*%
X148900002Y-98899998D03*
%TO.P,U1,61,GND*%
%TO.N,unconnected-(U1-GND-Pad61)*%
X148100001Y-98899998D03*
%TO.P,U1,62,GND*%
%TO.N,unconnected-(U1-GND-Pad62)*%
X147300002Y-98899998D03*
%TO.P,U1,63,GND*%
%TO.N,unconnected-(U1-GND-Pad63)*%
X146500001Y-98899998D03*
%TO.P,U1,64,GND*%
%TO.N,unconnected-(U1-GND-Pad64)*%
X145700003Y-98899998D03*
D12*
%TO.P,U1,65,GND*%
%TO.N,unconnected-(U1-GND-Pad65)*%
X144400002Y-98899998D03*
D14*
%TO.P,U1,73,GND*%
%TO.N,unconnected-(U1-GND-Pad73)*%
X151700001Y-106199999D03*
%TO.P,U1,70,GND*%
%TO.N,unconnected-(U1-GND-Pad70)*%
X151700001Y-104299999D03*
%TO.P,U1,76,GND*%
%TO.N,unconnected-(U1-GND-Pad76)*%
X151700001Y-108099999D03*
D15*
%TO.P,U1,69,GND*%
%TO.N,unconnected-(U1-GND-Pad69)*%
X149800001Y-104299999D03*
D14*
%TO.P,U1,72,GND*%
%TO.N,unconnected-(U1-GND-Pad72)*%
X149800001Y-106199999D03*
%TO.P,U1,75,GND*%
%TO.N,unconnected-(U1-GND-Pad75)*%
X149800001Y-108099999D03*
%TO.P,U1,71,GND*%
%TO.N,unconnected-(U1-GND-Pad71)*%
X153600001Y-104299999D03*
%TO.P,U1,74,GND*%
%TO.N,unconnected-(U1-GND-Pad74)*%
X153600001Y-106199999D03*
%TO.P,U1,77,GND*%
%TO.N,unconnected-(U1-GND-Pad77)*%
X153600001Y-108099999D03*
%TD*%
M02*
