%TF.GenerationSoftware,KiCad,Pcbnew,9.0.7*%
%TF.CreationDate,2026-02-08T14:14:51-05:00*%
%TF.ProjectId,esp32-c6,65737033-322d-4633-962e-6b696361645f,rev?*%
%TF.SameCoordinates,Original*%
%TF.FileFunction,Copper,L1,Top*%
%TF.FilePolarity,Positive*%
%FSLAX46Y46*%
G04 Gerber Fmt 4.6, Leading zero omitted, Abs format (unit mm)*
G04 Created by KiCad (PCBNEW 9.0.7) date 2026-02-08 14:14:51*
%MOMM*%
%LPD*%
G01*
G04 APERTURE LIST*
%TA.AperFunction,SMDPad,CuDef*%
%ADD10R,0.810000X0.220000*%
%TD*%
%TA.AperFunction,SMDPad,CuDef*%
%ADD11R,0.220000X0.810000*%
%TD*%
%TA.AperFunction,SMDPad,CuDef*%
%ADD12R,3.300000X3.300000*%
%TD*%
G04 APERTURE END LIST*
D10*
%TO.P,U1,1,ANT*%
%TO.N,unconnected-(U1-ANT-Pad1)*%
X147610000Y-98400000D03*
%TO.P,U1,2,VDDA3P3*%
%TO.N,VDDA3P3*%
X147610000Y-98800000D03*
%TO.P,U1,3,VDDA3P3*%
X147610000Y-99200000D03*
%TO.P,U1,4,CHIP_PU*%
%TO.N,unconnected-(U1-CHIP_PU-Pad4)*%
X147610000Y-99600000D03*
%TO.P,U1,5,VDDPST1*%
%TO.N,unconnected-(U1-VDDPST1-Pad5)*%
X147610000Y-100000000D03*
%TO.P,U1,6,GPIO0/XTAL_32K_P*%
%TO.N,unconnected-(U1-GPIO0{slash}XTAL_32K_P-Pad6)*%
X147610000Y-100400000D03*
%TO.P,U1,7,GPIO1/XTAL_32K_N*%
%TO.N,unconnected-(U1-GPIO1{slash}XTAL_32K_N-Pad7)*%
X147610000Y-100800000D03*
%TO.P,U1,8,GPIO2*%
%TO.N,unconnected-(U1-GPIO2-Pad8)*%
X147610000Y-101200000D03*
%TO.P,U1,9,GPIO3*%
%TO.N,unconnected-(U1-GPIO3-Pad9)*%
X147610000Y-101600000D03*
%TO.P,U1,10,GPIO4/MTMS*%
%TO.N,unconnected-(U1-GPIO4{slash}MTMS-Pad10)*%
X147610000Y-102000000D03*
D11*
%TO.P,U1,11,GPIO5/MTDI*%
%TO.N,unconnected-(U1-GPIO5{slash}MTDI-Pad11)*%
X148255000Y-102645000D03*
%TO.P,U1,12,GPIO6/MTCK*%
%TO.N,unconnected-(U1-GPIO6{slash}MTCK-Pad12)*%
X148655000Y-102645000D03*
%TO.P,U1,13,GPIO7/MTDO*%
%TO.N,unconnected-(U1-GPIO7{slash}MTDO-Pad13)*%
X149055000Y-102645000D03*
%TO.P,U1,14,GPIO8*%
%TO.N,unconnected-(U1-GPIO8-Pad14)*%
X149455000Y-102645000D03*
%TO.P,U1,15,GPIO9*%
%TO.N,unconnected-(U1-GPIO9-Pad15)*%
X149855000Y-102645000D03*
%TO.P,U1,16,GPIO10*%
%TO.N,unconnected-(U1-GPIO10-Pad16)*%
X150255000Y-102645000D03*
%TO.P,U1,17,GPIO11*%
%TO.N,unconnected-(U1-GPIO11-Pad17)*%
X150655000Y-102645000D03*
%TO.P,U1,18,USB_D-/GPIO12*%
%TO.N,unconnected-(U1-USB_D-{slash}GPIO12-Pad18)*%
X151055000Y-102645000D03*
%TO.P,U1,19,USB_D+/GPIO13*%
%TO.N,unconnected-(U1-USB_D+{slash}GPIO13-Pad19)*%
X151455000Y-102645000D03*
%TO.P,U1,20,SPICS0/GPIO24*%
%TO.N,unconnected-(U1-SPICS0{slash}GPIO24-Pad20)*%
X151855000Y-102645000D03*
D10*
%TO.P,U1,21,SPIQ/GPIO25*%
%TO.N,unconnected-(U1-SPIQ{slash}GPIO25-Pad21)*%
X152500000Y-102000000D03*
%TO.P,U1,22,SPIWP/GPIO26*%
%TO.N,unconnected-(U1-SPIWP{slash}GPIO26-Pad22)*%
X152500000Y-101600000D03*
%TO.P,U1,23,VDD_SPI*%
%TO.N,unconnected-(U1-VDD_SPI-Pad23)*%
X152500000Y-101200000D03*
%TO.P,U1,24,SPIHD/GPIO28*%
%TO.N,unconnected-(U1-SPIHD{slash}GPIO28-Pad24)*%
X152500000Y-100800000D03*
%TO.P,U1,25,SPICLK/GPIO29*%
%TO.N,unconnected-(U1-SPICLK{slash}GPIO29-Pad25)*%
X152500000Y-100400000D03*
%TO.P,U1,26,SPID/GPIO30*%
%TO.N,unconnected-(U1-SPID{slash}GPIO30-Pad26)*%
X152500000Y-100000000D03*
%TO.P,U1,27,GPIO15*%
%TO.N,unconnected-(U1-GPIO15-Pad27)*%
X152500000Y-99600000D03*
%TO.P,U1,28,VDDPST2*%
%TO.N,unconnected-(U1-VDDPST2-Pad28)*%
X152500000Y-99200000D03*
%TO.P,U1,29,U0TXD/GPIO16*%
%TO.N,unconnected-(U1-U0TXD{slash}GPIO16-Pad29)*%
X152500000Y-98800000D03*
%TO.P,U1,30,U0RXD/GPIO17*%
%TO.N,unconnected-(U1-U0RXD{slash}GPIO17-Pad30)*%
X152500000Y-98400000D03*
D11*
%TO.P,U1,31,SDIO_CMD/GPIO18*%
%TO.N,unconnected-(U1-SDIO_CMD{slash}GPIO18-Pad31)*%
X151855000Y-97755000D03*
%TO.P,U1,32,SDIO_CLK/GPIO19*%
%TO.N,unconnected-(U1-SDIO_CLK{slash}GPIO19-Pad32)*%
X151455000Y-97755000D03*
%TO.P,U1,33,SDIO_DATA0/GPIO20*%
%TO.N,unconnected-(U1-SDIO_DATA0{slash}GPIO20-Pad33)*%
X151055000Y-97755000D03*
%TO.P,U1,34,SDIO_DATA1/GPIO21*%
%TO.N,unconnected-(U1-SDIO_DATA1{slash}GPIO21-Pad34)*%
X150655000Y-97755000D03*
%TO.P,U1,35,SDIO_DATA2/GPIO22*%
%TO.N,unconnected-(U1-SDIO_DATA2{slash}GPIO22-Pad35)*%
X150255000Y-97755000D03*
%TO.P,U1,36,SDIO_DATA3/GPIO23*%
%TO.N,unconnected-(U1-SDIO_DATA3{slash}GPIO23-Pad36)*%
X149855000Y-97755000D03*
%TO.P,U1,37,VDDA1*%
%TO.N,unconnected-(U1-VDDA1-Pad37)*%
X149455000Y-97755000D03*
%TO.P,U1,38,XTAL_N*%
%TO.N,unconnected-(U1-XTAL_N-Pad38)*%
X149055000Y-97755000D03*
%TO.P,U1,39,XTAL_P*%
%TO.N,unconnected-(U1-XTAL_P-Pad39)*%
X148655000Y-97755000D03*
%TO.P,U1,40,VDDA2*%
%TO.N,unconnected-(U1-VDDA2-Pad40)*%
X148255000Y-97755000D03*
D12*
%TO.P,U1,41,GND*%
%TO.N,unconnected-(U1-GND-Pad41)*%
X150055000Y-100200000D03*
%TD*%
M02*
