%TF.GenerationSoftware,KiCad,Pcbnew,9.0.7*%
%TF.CreationDate,2026-02-08T14:18:17-05:00*%
%TF.ProjectId,esp32-c6-wroom,65737033-322d-4633-962d-77726f6f6d2e,rev?*%
%TF.SameCoordinates,Original*%
%TF.FileFunction,Copper,L1,Top*%
%TF.FilePolarity,Positive*%
%FSLAX46Y46*%
G04 Gerber Fmt 4.6, Leading zero omitted, Abs format (unit mm)*
G04 Created by KiCad (PCBNEW 9.0.7) date 2026-02-08 14:18:17*
%MOMM*%
%LPD*%
G01*
G04 APERTURE LIST*
%TA.AperFunction,SMDPad,CuDef*%
%ADD10R,1.500000X0.900000*%
%TD*%
%TA.AperFunction,SMDPad,CuDef*%
%ADD11R,0.800000X0.800000*%
%TD*%
%TA.AperFunction,ComponentPad*%
%ADD12C,0.350000*%
%TD*%
G04 APERTURE END LIST*
D10*
%TO.P,U1,1,GND*%
%TO.N,GND*%
X142000000Y-93990000D03*
%TO.P,U1,2,3V3*%
%TO.N,unconnected-(U1-3V3-Pad2)*%
X142000000Y-95260000D03*
%TO.P,U1,3,EN*%
%TO.N,unconnected-(U1-EN-Pad3)*%
X142000000Y-96530000D03*
%TO.P,U1,4,IO4*%
%TO.N,unconnected-(U1-IO4-Pad4)*%
X142000000Y-97800000D03*
%TO.P,U1,5,IO5*%
%TO.N,unconnected-(U1-IO5-Pad5)*%
X142000000Y-99070000D03*
%TO.P,U1,6,IO6*%
%TO.N,unconnected-(U1-IO6-Pad6)*%
X142000000Y-100340000D03*
%TO.P,U1,7,IO7*%
%TO.N,unconnected-(U1-IO7-Pad7)*%
X142000000Y-101610000D03*
%TO.P,U1,8,IO0*%
%TO.N,unconnected-(U1-IO0-Pad8)*%
X142000000Y-102880000D03*
%TO.P,U1,9,IO1*%
%TO.N,unconnected-(U1-IO1-Pad9)*%
X142000000Y-104150000D03*
%TO.P,U1,10,IO8*%
%TO.N,unconnected-(U1-IO8-Pad10)*%
X142000000Y-105420000D03*
%TO.P,U1,11,IO10*%
%TO.N,unconnected-(U1-IO10-Pad11)*%
X142000000Y-106690000D03*
%TO.P,U1,12,IO11*%
%TO.N,unconnected-(U1-IO11-Pad12)*%
X142000000Y-107960000D03*
%TO.P,U1,13,IO12*%
%TO.N,unconnected-(U1-IO12-Pad13)*%
X142000000Y-109230000D03*
%TO.P,U1,14,IO13*%
%TO.N,unconnected-(U1-IO13-Pad14)*%
X142000000Y-110500000D03*
%TO.P,U1,15,IO9*%
%TO.N,unconnected-(U1-IO9-Pad15)*%
X159500000Y-110500000D03*
%TO.P,U1,16,IO18*%
%TO.N,unconnected-(U1-IO18-Pad16)*%
X159500000Y-109230000D03*
%TO.P,U1,17,IO19*%
%TO.N,unconnected-(U1-IO19-Pad17)*%
X159500000Y-107960000D03*
%TO.P,U1,18,IO20*%
%TO.N,unconnected-(U1-IO20-Pad18)*%
X159500000Y-106690000D03*
%TO.P,U1,19,IO21*%
%TO.N,unconnected-(U1-IO21-Pad19)*%
X159500000Y-105420000D03*
%TO.P,U1,20,IO22*%
%TO.N,unconnected-(U1-IO22-Pad20)*%
X159500000Y-104150000D03*
%TO.P,U1,21,IO23*%
%TO.N,unconnected-(U1-IO23-Pad21)*%
X159500000Y-102880000D03*
%TO.P,U1,22,NC*%
%TO.N,unconnected-(U1-NC-Pad22)*%
X159500000Y-101610000D03*
%TO.P,U1,23,IO15*%
%TO.N,unconnected-(U1-IO15-Pad23)*%
X159500000Y-100340000D03*
%TO.P,U1,24,RXD0/GPIO17*%
%TO.N,unconnected-(U1-RXD0{slash}GPIO17-Pad24)*%
X159500000Y-99070000D03*
%TO.P,U1,25,TXD0/GPIO16*%
%TO.N,unconnected-(U1-TXD0{slash}GPIO16-Pad25)*%
X159500000Y-97800000D03*
%TO.P,U1,26,IO3*%
%TO.N,unconnected-(U1-IO3-Pad26)*%
X159500000Y-96530000D03*
%TO.P,U1,27,IO2*%
%TO.N,unconnected-(U1-IO2-Pad27)*%
X159500000Y-95260000D03*
%TO.P,U1,28,GND*%
%TO.N,GND*%
X159500000Y-93990000D03*
D11*
%TO.P,U1,29_5,GND*%
X149245000Y-99710000D03*
%TO.P,U1,29_1,GND*%
X147995000Y-98460000D03*
%TO.P,U1,29_2,GND*%
X149245000Y-98460000D03*
%TO.P,U1,29_3,GND*%
X150495000Y-98460000D03*
%TO.P,U1,29_4,GND*%
X147995000Y-99710000D03*
%TO.P,U1,29_6,GND*%
X150495000Y-99710000D03*
%TO.P,U1,29_7,GND*%
X147995000Y-100960000D03*
%TO.P,U1,29_8,GND*%
X149245000Y-100960000D03*
%TO.P,U1,29_9,GND*%
X150495000Y-100960000D03*
D12*
%TO.P,U1,30_1*%
%TO.N,N/C*%
X148620000Y-98460000D03*
%TO.P,U1,30_2*%
X149870000Y-98460000D03*
%TO.P,U1,30_3*%
X147995000Y-99085000D03*
%TO.P,U1,30_4*%
X149245000Y-99085000D03*
%TO.P,U1,30_5*%
X150495000Y-99085000D03*
%TO.P,U1,30_6*%
X148620000Y-99710000D03*
%TO.P,U1,30_7*%
X149870000Y-99710000D03*
%TO.P,U1,30_8*%
X147995000Y-100335000D03*
%TO.P,U1,30_9*%
X149245000Y-100335000D03*
%TO.P,U1,30_10*%
X150495000Y-100335000D03*
%TO.P,U1,30_11*%
X148620000Y-100960000D03*
%TO.P,U1,30_12*%
X149870000Y-100960000D03*
%TD*%
M02*
