%TF.GenerationSoftware,KiCad,Pcbnew,(6.0.9)*%
%TF.CreationDate,2023-01-13T00:07:19-05:00*%
%TF.ProjectId,esp32-s2,65737033-322d-4733-922e-6b696361645f,rev?*%
%TF.SameCoordinates,Original*%
%TF.FileFunction,Copper,L1,Top*%
%TF.FilePolarity,Positive*%
%FSLAX46Y46*%
G04 Gerber Fmt 4.6, Leading zero omitted, Abs format (unit mm)*
G04 Created by KiCad (PCBNEW (6.0.9)) date 2023-01-13 00:07:19*
%MOMM*%
%LPD*%
G01*
G04 APERTURE LIST*
%TA.AperFunction,SMDPad,CuDef*%
%ADD10R,1.500000X0.900000*%
%TD*%
%TA.AperFunction,SMDPad,CuDef*%
%ADD11R,0.900000X1.500000*%
%TD*%
%TA.AperFunction,SMDPad,CuDef*%
%ADD12R,1.100000X1.100000*%
%TD*%
G04 APERTURE END LIST*
D10*
%TO.P,U1,1,GND*%
%TO.N,Net-(U1-Pad1)*%
X139850000Y-92450000D03*
%TO.P,U1,2,3V3*%
%TO.N,unconnected-(U1-Pad2)*%
X139850000Y-93950000D03*
%TO.P,U1,3,GPIO0/BOOT*%
%TO.N,unconnected-(U1-Pad3)*%
X139850000Y-95450000D03*
%TO.P,U1,4,GPIO1/ADC1_CH0*%
%TO.N,unconnected-(U1-Pad4)*%
X139850000Y-96950000D03*
%TO.P,U1,5,GPIO2/ADC1_CH1*%
%TO.N,unconnected-(U1-Pad5)*%
X139850000Y-98450000D03*
%TO.P,U1,6,GPIO3/ADC1_CH2*%
%TO.N,unconnected-(U1-Pad6)*%
X139850000Y-99950000D03*
%TO.P,U1,7,GPIO4/ADC1_CH3*%
%TO.N,unconnected-(U1-Pad7)*%
X139850000Y-101450000D03*
%TO.P,U1,8,GPIO5/ADC1_CH4*%
%TO.N,unconnected-(U1-Pad8)*%
X139850000Y-102950000D03*
%TO.P,U1,9,GPIO6/ADC1_CH5*%
%TO.N,unconnected-(U1-Pad9)*%
X139850000Y-104450000D03*
%TO.P,U1,10,GPIO7/ADC1_CH6*%
%TO.N,unconnected-(U1-Pad10)*%
X139850000Y-105950000D03*
%TO.P,U1,11,GPIO8/ADC1_CH7*%
%TO.N,unconnected-(U1-Pad11)*%
X139850000Y-107450000D03*
%TO.P,U1,12,GPIO9/ADC1_CH8*%
%TO.N,unconnected-(U1-Pad12)*%
X139850000Y-108950000D03*
%TO.P,U1,13,GPIO10/ADC1_CH9*%
%TO.N,unconnected-(U1-Pad13)*%
X139850000Y-110450000D03*
%TO.P,U1,14,GPIO11/ADC2_CH0*%
%TO.N,unconnected-(U1-Pad14)*%
X139850000Y-111950000D03*
%TO.P,U1,15,GPIO12/ADC2_CH1*%
%TO.N,unconnected-(U1-Pad15)*%
X139850000Y-113450000D03*
%TO.P,U1,16,GPIO13/ADC2_CH2*%
%TO.N,unconnected-(U1-Pad16)*%
X139850000Y-114950000D03*
D11*
%TO.P,U1,17,GPIO14/ADC2_CH3*%
%TO.N,unconnected-(U1-Pad17)*%
X141850000Y-115700000D03*
%TO.P,U1,18,GPIO15/ADC2_CH4/XTAL_32K_P*%
%TO.N,unconnected-(U1-Pad18)*%
X143350000Y-115700000D03*
%TO.P,U1,19,GPIO16/ADC2_CH5/XTAL_32K_N*%
%TO.N,unconnected-(U1-Pad19)*%
X144850000Y-115700000D03*
%TO.P,U1,20,ADC2_CH7/DAC_2/GPIO17*%
%TO.N,unconnected-(U1-Pad20)*%
X146350000Y-115700000D03*
%TO.P,U1,21,ADC2_CH6/DAC_1/GPIO18*%
%TO.N,unconnected-(U1-Pad21)*%
X147850000Y-115700000D03*
%TO.P,U1,22,USB_D-/ADC2_CH8/GPIO19*%
%TO.N,unconnected-(U1-Pad22)*%
X149350000Y-115700000D03*
%TO.P,U1,23,USB_D+/ADC2_CH9/GPIO20*%
%TO.N,unconnected-(U1-Pad23)*%
X150850000Y-115700000D03*
%TO.P,U1,24,GPIO21*%
%TO.N,unconnected-(U1-Pad24)*%
X152350000Y-115700000D03*
%TO.P,U1,25,SPI_CS1/GPIO26*%
%TO.N,unconnected-(U1-Pad25)*%
X153850000Y-115700000D03*
%TO.P,U1,26,GND*%
%TO.N,Net-(U1-Pad1)*%
X155350000Y-115700000D03*
D10*
%TO.P,U1,27,GPIO33*%
%TO.N,unconnected-(U1-Pad27)*%
X157350000Y-114950000D03*
%TO.P,U1,28,GPIO34*%
%TO.N,unconnected-(U1-Pad28)*%
X157350000Y-113450000D03*
%TO.P,U1,29,GPIO35*%
%TO.N,unconnected-(U1-Pad29)*%
X157350000Y-111950000D03*
%TO.P,U1,30,GPIO36*%
%TO.N,unconnected-(U1-Pad30)*%
X157350000Y-110450000D03*
%TO.P,U1,31,GPIO37*%
%TO.N,unconnected-(U1-Pad31)*%
X157350000Y-108950000D03*
%TO.P,U1,32,GPIO38*%
%TO.N,unconnected-(U1-Pad32)*%
X157350000Y-107450000D03*
%TO.P,U1,33,MTCK/JTAG/GPIO39*%
%TO.N,unconnected-(U1-Pad33)*%
X157350000Y-105950000D03*
%TO.P,U1,34,MTDO/JTAG/GPIO40*%
%TO.N,unconnected-(U1-Pad34)*%
X157350000Y-104450000D03*
%TO.P,U1,35,MTDI/JTAG/GPIO41*%
%TO.N,unconnected-(U1-Pad35)*%
X157350000Y-102950000D03*
%TO.P,U1,36,MTMS/JTAG/GPIO42*%
%TO.N,unconnected-(U1-Pad36)*%
X157350000Y-101450000D03*
%TO.P,U1,37,GPIO43/U0TXD/PROG*%
%TO.N,unconnected-(U1-Pad37)*%
X157350000Y-99950000D03*
%TO.P,U1,38,GPIO44/U0RXD/PROG*%
%TO.N,unconnected-(U1-Pad38)*%
X157350000Y-98450000D03*
%TO.P,U1,39,GPIO45*%
%TO.N,unconnected-(U1-Pad39)*%
X157350000Y-96950000D03*
%TO.P,U1,40,GPIO46*%
%TO.N,unconnected-(U1-Pad40)*%
X157350000Y-95450000D03*
%TO.P,U1,41,CHIP/PU/RESET*%
%TO.N,unconnected-(U1-Pad41)*%
X157350000Y-93950000D03*
%TO.P,U1,42,GND*%
%TO.N,Net-(U1-Pad1)*%
X157350000Y-92450000D03*
D12*
%TO.P,U1,43,GND*%
X145910000Y-102000000D03*
X147410000Y-98950000D03*
X148910000Y-102000000D03*
X148910000Y-98950000D03*
X147410000Y-102000000D03*
X148910000Y-100500000D03*
X147410000Y-100500000D03*
X145910000Y-100500000D03*
X145910000Y-98950000D03*
%TD*%
M02*
